<svg xmlns="http://www.w3.org/2000/svg" viewBox="0 0 400 130" width="400" height="130">
  <defs>
    <linearGradient id="arcG" x1="0%" y1="0%" x2="100%" y2="100%">
      <stop offset="0%" stop-color="#0284c7"/><stop offset="100%" stop-color="#0369a1"/>
    </linearGradient>
    <linearGradient id="coneG" x1="0%" y1="0%" x2="0%" y2="100%">
      <stop offset="0%" stop-color="#0284c7"/><stop offset="100%" stop-color="#0369a1"/>
    </linearGradient>
  </defs>
  <path d="M 64 109 A 44 44 0 1 1 100 78" fill="none" stroke="url(#arcG)" stroke-width="7.5" stroke-linecap="round"/>
  <polygon points="100,78 104,95 87,90" fill="#0284c7"/>
  <rect x="50" y="30" width="16" height="9" rx="3.5" transform="rotate(35 58 65)" fill="#0284c7" opacity="0.7"/>
  <rect x="49" y="38" width="18" height="4" rx="1" transform="rotate(35 58 65)" fill="#0369a1"/>
  <rect x="50" y="41" width="16" height="32" rx="2" transform="rotate(35 58 65)" fill="#bae6fd" stroke="#0284c7" stroke-width="2.5"/>
  <rect x="51" y="42" width="3" height="26" rx="1.5" transform="rotate(35 58 65)" fill="#0284c7" opacity="0.35"/>
  <rect x="50" y="72" width="16" height="7" rx="1" transform="rotate(35 58 65)" fill="#7dd3fc" stroke="#0284c7" stroke-width="1.5"/>
  <polygon points="50,79 66,79 58,100" transform="rotate(35 58 65)" fill="url(#coneG)"/>
  <text x="122" y="76" font-family="Helvetica Neue,Helvetica,Arial,sans-serif" font-size="50" font-weight="300" letter-spacing="-1" fill="#64748b">site</text>
  <text x="216" y="76" font-family="Helvetica Neue,Helvetica,Arial,sans-serif" font-size="50" font-weight="800" letter-spacing="-2" fill="#0f172a">refresh</text>
  <text x="124" y="100" font-family="Helvetica Neue,Helvetica,Arial,sans-serif" font-size="10.5" font-weight="500" letter-spacing="3.5" fill="#94a3b8">VISUAL SITE EDITOR</text>
</svg>
