<svg xmlns="http://www.w3.org/2000/svg" viewBox="0 0 400 130" width="400" height="130">
  <defs>
    <linearGradient id="arcG" x1="0%" y1="0%" x2="100%" y2="100%">
      <stop offset="0%" stop-color="#7dd3fc"/><stop offset="100%" stop-color="#0ea5e9"/>
    </linearGradient>
    <linearGradient id="coneG" x1="0%" y1="0%" x2="0%" y2="100%">
      <stop offset="0%" stop-color="#38bdf8"/><stop offset="100%" stop-color="#0284c7"/>
    </linearGradient>
  </defs>
  <path d="M 64 109 A 44 44 0 1 1 100 78" fill="none" stroke="url(#arcG)" stroke-width="7.5" stroke-linecap="round"/>
  <polygon points="100,78 104,95 87,90" fill="#38bdf8"/>
  <rect x="50" y="30" width="16" height="9" rx="3.5" transform="rotate(35 58 65)" fill="#7dd3fc" opacity="0.9"/>
  <rect x="49" y="38" width="18" height="4" rx="1" transform="rotate(35 58 65)" fill="#0ea5e9"/>
  <rect x="50" y="41" width="16" height="32" rx="2" transform="rotate(35 58 65)" fill="#1a3347" stroke="#38bdf8" stroke-width="2.5"/>
  <rect x="51" y="42" width="3" height="26" rx="1.5" transform="rotate(35 58 65)" fill="#7dd3fc" opacity="0.45"/>
  <rect x="50" y="72" width="16" height="7" rx="1" transform="rotate(35 58 65)" fill="#0c1e2e" stroke="#0ea5e9" stroke-width="1.5"/>
  <line x1="51" y1="74" x2="65" y2="74" stroke="#38bdf8" stroke-width="1" opacity="0.45" transform="rotate(35 58 65)"/>
  <line x1="51" y1="77" x2="65" y2="77" stroke="#38bdf8" stroke-width="1" opacity="0.3" transform="rotate(35 58 65)"/>
  <polygon points="50,79 66,79 58,100" transform="rotate(35 58 65)" fill="url(#coneG)"/>
  <text x="122" y="76" font-family="Helvetica Neue,Helvetica,Arial,sans-serif" font-size="50" font-weight="300" letter-spacing="-1" fill="#94a3b8">site</text>
  <text x="216" y="76" font-family="Helvetica Neue,Helvetica,Arial,sans-serif" font-size="50" font-weight="800" letter-spacing="-2" fill="#f1f5f9">refresh</text>
  <text x="124" y="100" font-family="Helvetica Neue,Helvetica,Arial,sans-serif" font-size="10.5" font-weight="500" letter-spacing="3.5" fill="#334155">VISUAL SITE EDITOR</text>
</svg>
